<svg aria-hidden="true" style="position: absolute; width: 0; height: 0; overflow: hidden;" version="1.1" xmlns="http://www.w3.org/2000/svg" xmlns:xlink="http://www.w3.org/1999/xlink">
<defs>
<symbol id="icon-cogs" viewBox="0 0 30 28">
<path d="M14 14c0-2.203-1.797-4-4-4s-4 1.797-4 4 1.797 4 4 4 4-1.797 4-4zM26 22c0-1.094-0.906-2-2-2s-2 0.906-2 2c0 1.109 0.906 2 2 2 1.109 0 2-0.906 2-2zM26 6c0-1.094-0.906-2-2-2s-2 0.906-2 2c0 1.109 0.906 2 2 2 1.109 0 2-0.906 2-2zM20 12.578v2.891c0 0.203-0.156 0.438-0.359 0.469l-2.422 0.375c-0.125 0.406-0.297 0.797-0.5 1.188 0.438 0.625 0.906 1.203 1.406 1.797 0.063 0.094 0.109 0.187 0.109 0.313 0 0.109-0.031 0.219-0.109 0.297-0.313 0.422-2.063 2.328-2.516 2.328-0.125 0-0.234-0.047-0.328-0.109l-1.797-1.406c-0.391 0.203-0.781 0.359-1.203 0.484-0.078 0.797-0.156 1.656-0.359 2.422-0.063 0.219-0.25 0.375-0.469 0.375h-2.906c-0.219 0-0.438-0.172-0.469-0.391l-0.359-2.391c-0.406-0.125-0.797-0.297-1.172-0.484l-1.844 1.391c-0.078 0.078-0.203 0.109-0.313 0.109-0.125 0-0.234-0.047-0.328-0.125-0.406-0.375-2.25-2.047-2.25-2.5 0-0.109 0.047-0.203 0.109-0.297 0.453-0.594 0.922-1.172 1.375-1.781-0.219-0.422-0.406-0.844-0.547-1.281l-2.375-0.375c-0.219-0.031-0.375-0.234-0.375-0.453v-2.891c0-0.203 0.156-0.438 0.359-0.469l2.422-0.375c0.125-0.406 0.297-0.797 0.5-1.188-0.438-0.625-0.906-1.203-1.406-1.797-0.063-0.094-0.109-0.203-0.109-0.313s0.031-0.219 0.109-0.313c0.313-0.422 2.063-2.312 2.516-2.312 0.125 0 0.234 0.047 0.328 0.109l1.797 1.406c0.391-0.203 0.781-0.359 1.203-0.5 0.078-0.781 0.156-1.641 0.359-2.406 0.063-0.219 0.25-0.375 0.469-0.375h2.906c0.219 0 0.438 0.172 0.469 0.391l0.359 2.391c0.406 0.125 0.797 0.297 1.172 0.484l1.844-1.391c0.094-0.078 0.203-0.109 0.313-0.109 0.125 0 0.234 0.047 0.328 0.125 0.406 0.375 2.25 2.063 2.25 2.5 0 0.109-0.047 0.203-0.109 0.297-0.453 0.609-0.922 1.172-1.359 1.781 0.203 0.422 0.391 0.844 0.531 1.281l2.375 0.359c0.219 0.047 0.375 0.25 0.375 0.469zM30 20.906v2.188c0 0.234-2.016 0.453-2.328 0.484-0.125 0.297-0.281 0.562-0.469 0.812 0.141 0.313 0.797 1.875 0.797 2.156 0 0.047-0.016 0.078-0.063 0.109-0.187 0.109-1.859 1.109-1.937 1.109-0.203 0-1.375-1.563-1.531-1.797-0.156 0.016-0.313 0.031-0.469 0.031s-0.313-0.016-0.469-0.031c-0.156 0.234-1.328 1.797-1.531 1.797-0.078 0-1.75-1-1.937-1.109-0.047-0.031-0.063-0.078-0.063-0.109 0-0.266 0.656-1.844 0.797-2.156-0.187-0.25-0.344-0.516-0.469-0.812-0.313-0.031-2.328-0.25-2.328-0.484v-2.188c0-0.234 2.016-0.453 2.328-0.484 0.125-0.281 0.281-0.562 0.469-0.812-0.141-0.313-0.797-1.891-0.797-2.156 0-0.031 0.016-0.078 0.063-0.109 0.187-0.094 1.859-1.094 1.937-1.094 0.203 0 1.375 1.547 1.531 1.781 0.156-0.016 0.313-0.031 0.469-0.031s0.313 0.016 0.469 0.031c0.438-0.609 0.906-1.219 1.437-1.75l0.094-0.031c0.078 0 1.75 0.984 1.937 1.094 0.047 0.031 0.063 0.078 0.063 0.109 0 0.281-0.656 1.844-0.797 2.156 0.187 0.25 0.344 0.531 0.469 0.812 0.313 0.031 2.328 0.25 2.328 0.484zM30 4.906v2.187c0 0.234-2.016 0.453-2.328 0.484-0.125 0.297-0.281 0.562-0.469 0.812 0.141 0.313 0.797 1.875 0.797 2.156 0 0.047-0.016 0.078-0.063 0.109-0.187 0.109-1.859 1.109-1.937 1.109-0.203 0-1.375-1.563-1.531-1.797-0.156 0.016-0.313 0.031-0.469 0.031s-0.313-0.016-0.469-0.031c-0.156 0.234-1.328 1.797-1.531 1.797-0.078 0-1.75-1-1.937-1.109-0.047-0.031-0.063-0.078-0.063-0.109 0-0.266 0.656-1.844 0.797-2.156-0.187-0.25-0.344-0.516-0.469-0.812-0.313-0.031-2.328-0.25-2.328-0.484v-2.188c0-0.234 2.016-0.453 2.328-0.484 0.125-0.281 0.281-0.562 0.469-0.812-0.141-0.313-0.797-1.891-0.797-2.156 0-0.031 0.016-0.078 0.063-0.109 0.187-0.094 1.859-1.094 1.937-1.094 0.203 0 1.375 1.547 1.531 1.781 0.156-0.016 0.313-0.031 0.469-0.031s0.313 0.016 0.469 0.031c0.438-0.609 0.906-1.219 1.437-1.75l0.094-0.031c0.078 0 1.75 0.984 1.937 1.094 0.047 0.031 0.063 0.078 0.063 0.109 0 0.281-0.656 1.844-0.797 2.156 0.187 0.25 0.344 0.531 0.469 0.812 0.313 0.031 2.328 0.25 2.328 0.484z"></path>
</symbol>
<symbol id="icon-cut" viewBox="0 0 28 28">
<path d="M15 14c0.547 0 1 0.453 1 1s-0.453 1-1 1-1-0.453-1-1 0.453-1 1-1zM19.688 15l7.922 6.219c0.281 0.203 0.422 0.547 0.391 0.875-0.047 0.344-0.25 0.641-0.547 0.797l-2 1c-0.141 0.078-0.297 0.109-0.453 0.109-0.172 0-0.344-0.047-0.484-0.125l-10.781-6.047-1.719 1.031c-0.063 0.031-0.125 0.063-0.187 0.078 0.141 0.484 0.203 1 0.156 1.516-0.141 1.609-1.219 3.141-2.938 4.234-1.328 0.844-2.859 1.313-4.328 1.313-1.406 0-2.594-0.422-3.469-1.219-0.891-0.828-1.344-2.016-1.234-3.234 0.141-1.594 1.219-3.141 2.922-4.234 1.328-0.844 2.875-1.313 4.344-1.313 0.875 0 1.672 0.172 2.359 0.484 0.094-0.141 0.203-0.25 0.344-0.344l1.906-1.141-1.906-1.141c-0.141-0.094-0.25-0.203-0.344-0.344-0.688 0.313-1.484 0.484-2.359 0.484-1.469 0-3.016-0.469-4.344-1.313-1.703-1.094-2.781-2.641-2.922-4.234-0.109-1.219 0.344-2.406 1.234-3.219 0.875-0.812 2.063-1.234 3.469-1.234 1.469 0 3 0.469 4.328 1.313 1.719 1.078 2.797 2.625 2.938 4.234 0.047 0.516-0.016 1.031-0.156 1.516 0.063 0.016 0.125 0.047 0.187 0.078l1.719 1.031 10.781-6.047c0.141-0.078 0.313-0.125 0.484-0.125 0.156 0 0.313 0.031 0.453 0.109l2 1c0.297 0.156 0.5 0.453 0.547 0.797 0.031 0.328-0.109 0.672-0.391 0.875zM9.047 10.938c0.953-0.875 0.359-2.453-1.328-3.516-0.953-0.609-2.063-0.922-3-0.922-0.719 0-1.359 0.187-1.766 0.562-0.953 0.875-0.359 2.453 1.328 3.516 0.953 0.609 2.047 0.922 3 0.922 0.719 0 1.359-0.187 1.766-0.562zM7.719 22.578c1.687-1.062 2.281-2.641 1.328-3.516-0.406-0.375-1.047-0.562-1.766-0.562-0.953 0-2.047 0.313-3 0.922-1.687 1.062-2.281 2.641-1.328 3.516 0.406 0.375 1.047 0.562 1.766 0.562 0.938 0 2.047-0.313 3-0.922zM10.5 13l1.5 0.906v-0.172c0-0.359 0.203-0.688 0.516-0.875l0.219-0.125-1.234-0.734-0.406 0.406c-0.125 0.125-0.219 0.25-0.344 0.359-0.047 0.047-0.078 0.063-0.109 0.094zM14 16.5l1.5 0.5 11.5-9-2-1-12 6.734v1.766l-2.5 1.5 0.141 0.125c0.031 0.047 0.063 0.063 0.109 0.094 0.125 0.125 0.219 0.25 0.344 0.375l0.406 0.406zM25 23l2-1-8.125-6.375-2.766 2.156c-0.047 0.063-0.125 0.078-0.203 0.109z"></path>
</symbol>
<symbol id="icon-display" viewBox="0 0 32 32">
<path d="M0 2v20h32v-20h-32zM30 20h-28v-16h28v16zM21 24h-10l-1 4-2 2h16l-2-2z"></path>
</symbol>
<symbol id="icon-clear" viewBox="0 0 24 24">
<path d="M18.984 6.422l-5.578 5.578 5.578 5.578-1.406 1.406-5.578-5.578-5.578 5.578-1.406-1.406 5.578-5.578-5.578-5.578 1.406-1.406 5.578 5.578 5.578-5.578z"></path>
</symbol>
<symbol id="icon-menu" viewBox="0 0 24 24">
<path d="M3 6h18v2.016h-18v-2.016zM3 12.984v-1.969h18v1.969h-18zM3 18v-2.016h18v2.016h-18z"></path>
</symbol>

</defs>
</svg>
